# xmcd
#
# Track frame offsets:
#	150
#	16225
#	34028
#	51138
#	70917
#	89492
#	109305
#	124697
#	139507
#	164521
#	185691
#	207866
#	231253
#	250669
#	271347
#	293537
#	315637
#	335962
#
# Disc length: 4742
#
# Revision: 1
# Processed by: cddbd v1.5.1PL0 Copyright (c) Steve Scherf et al.
# Submitted via: CDex 1.51
# Normalized: r0:DSETVAR1,TDELIM( - )
#
DISCID=09128412
DTITLE=Various Artist - White Roses - (A Tribute To Janis Joplin)
DYEAR=2004
DGENRE=Blues
TTITLE0=Bette Midler - The Rose
TTITLE1=Janis Joplin - Me And Bobby McGhee (Acoustic Version)
TTITLE2=Janis Joplin - Little Girl Blue
TTITLE3=Janis Joplin - Turtle Blues
TTITLE4=Janis Joplin - Summertime (Alternate Version)
TTITLE5=Janis Joplin - Kozmic Blues
TTITLE6=Janis Joplin - Get It While You Can
TTITLE7=Janis Joplin - Trust Me
TTITLE8=Joss Stone - Victim To A Foolish Heart
TTITLE9=Joss Stone - Right To Be Wrong
TTITLE10=Jan James - Last Train
TTITLE11=Jan James - Time Won't Let Me Down
TTITLE12=Norah Jones (f.P.Malick Group) - Deceptivley Yours
TTITLE13=Norah Jones (f.P.Malick Group) - All For You
TTITLE14=Sam Brown - Stop
TTITLE15=Bette Midler - When A Man Loves A Woman (from "The Rose")
TTITLE16=Janis Joplin - Me And Bobby McGhee
TTITLE17=Jerry Felix - Peace In My World
EXTD=YEAR: 2004
EXTT0=
EXTT1=
EXTT2=
EXTT3=
EXTT4=
EXTT5=
EXTT6=
EXTT7=
EXTT8=
EXTT9=
EXTT10=
EXTT11=
EXTT12=
EXTT13=
EXTT14=
EXTT15=
EXTT16=
EXTT17=
PLAYORDER=
